<?xml version="1.0" encoding="utf-8"?>
<!-- Generator: Adobe Illustrator 23.0.6, SVG Export Plug-In . SVG Version: 6.00 Build 0)  -->
<svg version="1.1" xmlns="http://www.w3.org/2000/svg" xmlns:xlink="http://www.w3.org/1999/xlink" x="0px" y="0px" width="1000px"
	 height="890px" viewBox="0 0 1000 890" style="enable-background:new 0 0 1000 890;" xml:space="preserve">
<style type="text/css">
	.st0{fill:#FFFFFF;}
	.st1{fill:#606060;}
</style>
<g id="Ebene_1">
	<rect width="1000" height="890"/>
	<rect x="1000" y="-90.4" class="st1" width="76.5" height="1100.7"/>
	<g>
		<g>
			<path class="st0" d="M7.3,739v-16.5h18.1V581.3h-47.6v33.6h-17.1v-50.1h147.3v50.1H91.1v-33.6H43.8v141.1h18.1V739H7.3z"/>
			<path class="st0" d="M276.3,722.5h17.1V739h-28.7l-49.9-73.2h-37.5v56.6h18.4V739h-54.8v-16.5h18.1V581.3h-18.1v-16.5h80.7
				c29.7,0,54,18.1,54,49.6c0,29-18.6,45.2-40.8,48.9L276.3,722.5z M218.9,650.1c22,0,38.3-11.1,38.3-35.4c0-21.2-16-34.1-36.4-34.1
				h-43.4v69.5H218.9z"/>
			<path class="st0" d="M328.1,739v-16.5h18.1V581.3h-18.1v-16.5h54.5v16.5h-18.1v141.1h18.1V739H328.1z"/>
			<path class="st0" d="M495.5,742.4c-54.8,0-82.7-43.4-82.7-90.7c0-47.3,27.9-90.2,82.7-90.2s82.7,42.9,82.7,90.2
				C578.3,699,550.3,742.4,495.5,742.4z M495.5,577.5c-42.1,0-63.8,35.4-63.8,74.4c0,38.5,21.7,74.4,63.8,74.4s63.8-35.4,63.8-74.4
				C559.4,613.4,537.7,577.5,495.5,577.5z"/>
		</g>
		<g>
			<path class="st0" d="M31.9,234.2v-20.9H49v58.4H31.9v-20.9H-2.7v57.9h25.8v16.5h-62.3v-16.5h18.1V167.5h-18.1V151H87.7v50.4H70.7
				v-33.9H-2.7v66.7H31.9z"/>
			<path class="st0" d="M213.6,325.2v-16.5h16.5l-14.7-37h-76l-14.5,37H143v16.5H92.9v-16.5h11.9l65.1-160.3h15.8l64.6,160.3h11.9
				v16.5H213.6z M177.1,175l-31.5,80.9h63.6L177.1,175z"/>
			<path class="st0" d="M311,325.2v-16.5h18.1V167.5h-47.6v33.6h-17.1V151h147.3v50.1h-17.1v-33.6h-47.3v141.1h18.1v16.5H311z"/>
			<path class="st0" d="M565.5,325.2v-16.5h18.1V243H480.9v65.7H499v16.5h-54.5v-16.5h18.1V167.5h-18.1V151H499v16.5h-18.1v58.9
				h102.6v-58.9h-18.1V151H620v16.5h-18.1v141.1H620v16.5H565.5z"/>
			<path class="st0" d="M733.5,328.6c-54.8,0-82.7-43.4-82.7-90.7s27.9-90.2,82.7-90.2s82.7,42.9,82.7,90.2S788.3,328.6,733.5,328.6
				z M733.5,163.6c-42.1,0-63.8,35.4-63.8,74.4c0,38.5,21.7,74.4,63.8,74.4s63.8-35.4,63.8-74.4
				C797.3,199.6,775.6,163.6,733.5,163.6z"/>
			<path class="st0" d="M985.4,325.2v-16.5h18.1V185.9l-53.8,86.3h-13.2l-53.8-84.3v120.7h18.1v16.5h-54v-16.5h18.1V167.5h-18.1V151
				h34.1l62.6,100.6L1006,151h33.9v16.5h-18.1v141.1h18.1v16.5H985.4z"/>
		</g>
		<g>
			<path class="st0" d="M-39.2,535.5v-53h17.1v15.8c11.1,13.4,26.6,21.2,46.5,21.2c27.7,0,41.6-12.4,41.6-29.7
				c0-50.7-96.7-27.7-96.7-88.4c0-27.7,20.2-46.8,56.1-46.8c12.9,0,26.1,2.8,37.5,9.8v-9.8H80v47.8H62.9v-17.6
				c-8-8-22.5-14.2-37-14.2c-26.4,0-37.5,11.9-37.5,27.9c0,46,96.7,26.9,96.7,87.9c0,32.1-26.6,49.1-61.5,49.1
				c-18.1,0-33.3-4.4-45.8-14v14H-39.2z"/>
			<path class="st0" d="M166,532.1v-16.5h18.1V374.4h-47.6V408h-17.1v-50.1h147.3V408h-17.1v-33.6h-47.3v141.1h18.1v16.5H166z"/>
			<path class="st0" d="M435,515.6H452v16.5h-28.7L373.4,459H336v56.6h18.4v16.5h-54.8v-16.5h18.1V374.4h-18.1v-16.5h80.7
				c29.7,0,54,18.1,54,49.6c0,29-18.6,45.2-40.8,48.9L435,515.6z M377.6,443.2c22,0,38.3-11.1,38.3-35.4c0-21.2-16-34.1-36.4-34.1
				H336v69.5H377.6z"/>
			<path class="st0" d="M486.8,532.1v-16.5h18.1V374.4h-18.1v-16.5h54.5v16.5h-18.1v141.1h18.1v16.5H486.8z"/>
			<path class="st0" d="M719.9,534.4l-108-142.9v124.1h25.8v16.5h-61.8v-16.5H594V374.4h-18.1v-16.5h33.3l106.5,141.4V374.4h-25.8
				v-16.5h61.8v16.5h-18.1v160H719.9z"/>
			<path class="st0" d="M902.4,386.3c-11.9-10.9-25.3-15.8-40.8-15.8c-41.6,0-60.2,37.5-60.2,74.4c0,44.7,19.9,74.4,68.5,74.4
				c11.9,0,25.6-1.3,37-5.7v-48.6h-51.7v-16h69.3v76.5c-17.3,7-37.2,9.8-56.1,9.8c-56.6,0-85.8-34.1-85.8-90.2
				c0-46.5,24.8-90.7,78.6-90.7c15.8,0,30.2,4.1,41.4,11.4v-11.4h17.1v47.8h-17.1V386.3z"/>
		</g>
	</g>
</g>
<g id="Ebene_2">
</g>
</svg>
