<?xml version="1.0" encoding="utf-8"?>
<!-- Generator: Adobe Illustrator 23.0.6, SVG Export Plug-In . SVG Version: 6.00 Build 0)  -->
<svg version="1.1" xmlns="http://www.w3.org/2000/svg" xmlns:xlink="http://www.w3.org/1999/xlink" x="0px" y="0px" width="1000px"
	 height="1000px" viewBox="0 0 1000 1000" style="enable-background:new 0 0 1000 1000;" xml:space="preserve">
<style type="text/css">
	.st0{fill:#FFFFFF;}
	.st1{fill:#606060;}
	.st2{fill:#FFFFFF;stroke:#FFFFFF;stroke-width:3;stroke-miterlimit:10;}
</style>
<g id="Ebene_1">
	<rect width="1000" height="1000"/>
	<g>
		<path class="st2" d="M109.2,108.4h83.3v9.4h-71.8v58.1h56.5v9.4h-56.5v69.4h-11.5V108.4z"/>
		<path class="st2" d="M248,108.4h15.1l52.6,146.3h-11.5l-16.2-44.8h-65.9l-16,44.8h-10.8L248,108.4z M225.4,200.7h59.4l-29.7-82.9
			L225.4,200.7z"/>
		<path class="st2" d="M359.7,117.8h-45.4v-9.4h102.1v9.4H371v136.9h-11.3V117.8z"/>
		<path class="st2" d="M441.4,108.4h11.5v68.2H539v-68.2h11.5v146.3H539v-68.6h-86.2v68.6h-11.5V108.4z"/>
		<path class="st2" d="M580.1,182.5v-1.6c0-41.5,30.1-74.1,71.2-74.1c41.3,0,71.2,32.5,71.2,73.7v1.6c0,41.3-29.9,74.3-70.8,74.3
			C610,256.4,580.1,223.4,580.1,182.5z M710.7,181.9v-1.6c0-35.6-23.5-64.1-59.4-64.1c-35.8,0-59.6,27.6-59.6,64.5v1.6
			c0,37.2,26,64.5,60,64.5C686.8,246.7,710.7,219.3,710.7,181.9z"/>
		<path class="st2" d="M752.1,108.4h16.4L820,234.1l51.8-125.7h16v146.3h-11.3v-132l-55.1,132h-3.7l-55.1-132v132h-10.6V108.4z"/>
		<path class="st2" d="M99,436.3h11.3c2.5,18.4,12.7,34.2,43.2,34.2c22.9,0,37.9-13.3,37.9-31.3c0-20.5-9.8-27.6-39.3-32.1
			c-31.9-4.7-47.3-15.3-47.3-38.5c0-22.7,18.6-38.3,46-38.3c27.2,0,43.8,13.5,47.1,36.8h-10.4c-3.5-18.2-14.9-27.4-36.6-27.4
			c-22.5,0-35.4,10.4-35.4,28c0,16,8,24.6,38.5,29.1c32.7,4.9,48.5,14.1,48.5,41.5c0,23.1-19.4,41.5-48.9,41.5
			C117.2,479.9,102,460.3,99,436.3z"/>
		<path class="st2" d="M258,341.3h-45.4v-9.4h102.1v9.4h-45.4v136.9H258V341.3z"/>
		<path class="st2" d="M339.6,331.9h40.1c28.4,0,49.7,11.1,49.7,39.3v0.8c0,24.4-16,35.6-37.9,38.7l46.5,67.5h-12.7l-45.8-66.7
			h-28.4v66.7h-11.5V331.9z M380.4,402.3c23.5,0,37.7-9,37.7-30.3v-0.8c0-22.5-14.9-29.9-37.7-29.9h-29.3v61H380.4z"/>
		<path class="st2" d="M464.7,331.9h11.5v146.3h-11.5V331.9z"/>
		<path class="st2" d="M514.8,331.9h15.6l81.9,130.6V331.9h10.8v146.3h-13.5l-83.7-133.6v133.6h-11.1V331.9z"/>
		<path class="st2" d="M652.8,406v-1.6c0-42.8,29.7-74.3,69.8-74.3c28,0,53.2,13.1,58.7,43.6h-11.5c-5.3-24.2-23.7-34.4-47.1-34.4
			c-35.2,0-58.3,26.8-58.3,64.9v1.6c0,38.9,20.9,64.7,58.5,64.7c34.2,0,51.4-21.1,51.8-53.2v-0.8h-45v-9.6h56.1v8.4
			c0,42.2-25.2,64.7-62.8,64.7C679,479.9,652.8,449,652.8,406z"/>
		<path class="st2" d="M141.9,564.9H96.5v-9.4h102.1v9.4h-45.4v136.9h-11.3V564.9z"/>
		<path class="st2" d="M223.6,555.5h40.1c28.4,0,49.7,11.1,49.7,39.3v0.8c0,24.4-16,35.6-37.9,38.7l46.5,67.5h-12.7l-45.8-66.7
			h-28.4v66.7h-11.5V555.5z M264.3,625.9c23.5,0,37.7-9,37.7-30.3v-0.8c0-22.5-14.9-29.9-37.7-29.9h-29.3v61H264.3z"/>
		<path class="st2" d="M348.6,555.5h11.5v146.3h-11.5V555.5z"/>
		<path class="st2" d="M390.8,629.6v-1.6c0-41.5,30.1-74.1,71.2-74.1c41.3,0,71.2,32.5,71.2,73.7v1.6c0,41.3-29.9,74.3-70.8,74.3
			C420.7,703.4,390.8,670.5,390.8,629.6z M521.4,628.9v-1.6c0-35.6-23.5-64.1-59.4-64.1c-35.8,0-59.6,27.6-59.6,64.5v1.6
			c0,37.2,26,64.5,60,64.5C497.4,693.8,521.4,666.4,521.4,628.9z"/>
	</g>
</g>
<g id="Ebene_2">
</g>
</svg>
