<?xml version="1.0" encoding="utf-8"?>
<!-- Generator: Adobe Illustrator 23.0.6, SVG Export Plug-In . SVG Version: 6.00 Build 0)  -->
<svg version="1.1" id="Ebene_1" xmlns="http://www.w3.org/2000/svg" xmlns:xlink="http://www.w3.org/1999/xlink" x="0px" y="0px"
	 width="1000px" height="868px" viewBox="0 0 1000 868" style="enable-background:new 0 0 1000 868;" xml:space="preserve">
<style type="text/css">
	.st0{fill:#FFFFFF;}
</style>
<rect class="st0" width="1000" height="868"/>
<g id="Gruppe_15" transform="translate(-1053)">
	<path id="Pfad_9" d="M1753.7,73.4c-24.3,0-40.5,24-40.5,64.5c0,41.2,16.2,66,40.5,66c24.3,0,40.5-24.8,40.5-66
		C1794.2,97.4,1778,73.4,1753.7,73.4z"/>
	<path id="Pfad_10" d="M1319.3,129.3c-5.6-17.9-11-35.6-15.9-54.2h-1c-5.2,18.7-10.3,36.3-15.9,54.2l-7.6,24.3h48L1319.3,129.3z"/>
	<path id="Pfad_11" d="M1121.7,0H1053v269.1h1000V0H1121.7z M1220.6,75.6h-78.3v54.2h66.2v17.4h-66.2v71.9h-20.6v-161h98.9V75.6z
		 M1347.1,219.1l-15.1-48.8h-58.4l-15.3,48.8h-21.1l54.2-161h23.6l54.2,161H1347.1z M1504.1,75.6h-53.3v143.5h-20.6V75.6h-53.2V58.2
		H1504L1504.1,75.6z M1650.1,219.1h-20.8v-75.6h-66.7v75.6h-20.8v-161h20.8v67.2h66.7V58.2h20.8V219.1z M1753.7,222.1
		c-36.3,0-61.8-31.4-61.8-84.2c0-52,25.5-82.7,61.8-82.7s61.8,30.7,61.8,82.7C1815.5,190.7,1790,222.1,1753.7,222.1z M1968.4,219.1
		h-19.6v-80.5c0-15.7,2.5-43.2,3.4-56.9h-0.7l-9.1,31.4l-23.1,63.3h-14.7l-22.6-63.3l-9.3-31.4h-0.5c1.5,13.7,3.4,41.2,3.4,56.9
		v80.5h-19.1v-161h25l22.6,68.7l7.9,26h1l7.6-26l22.8-68.7h25L1968.4,219.1z"/>
	<path id="Pfad_12" d="M1516.4,398c0-21.1-13.7-28.7-38.8-28.7h-26.5V429h26.5C1502.7,429,1516.4,418.6,1516.4,398z"/>
	<path id="Pfad_13" d="M1053,287.8v277.5h1000V287.8H1053z M1173.5,516.6c-21.8,0.1-42.8-8.5-58.4-23.8l6.6-7.7l5.6-6.5
		c12.5,12.5,29.4,19.7,47.1,19.9c22.1,0,34.8-10.6,34.8-25.3c0-17.2-12.5-22.1-28.7-28.9l-23.3-10.3c-16-6.4-34.6-17.7-34.6-41.5
		c0-24.5,22.1-42.7,52.8-42.7c18.5-0.2,36.3,7,49.6,19.9l-10.8,13.3c-10.7-9.9-24.9-15.3-39.5-15c-18.6,0-31.2,8.8-31.2,23.3
		c0,15.5,15,21.1,28.7,26.5l22.6,10.1c19.9,7.8,35.6,19.1,35.6,42.9C1230.4,496.2,1208.8,516.6,1173.5,516.6z M1390.4,370.1h-53.2
		v143.5h-20.6V370.1h-53.2v-17.4h127.1L1390.4,370.1z M1518.4,513.6l-38.7-68h-28.5v68h-20.8v-161h50.3c32.6,0,56.4,11.8,56.4,45.4
		c0,25-14.4,39.9-36.2,45.3l40.9,70.3L1518.4,513.6z M1682.5,370.1h-40v126.1h40v17.4h-100.6v-17.4h40V370.1h-40v-17.4h100.6V370.1z
		 M1833.8,513.6h-22.6l-51.5-101.1l-15.5-33.4h-0.5c0.7,16.4,2.7,33.6,2.7,50.3v84.2h-19.6v-161h22.6l51.5,101.1l15.5,33.4h0.5
		c-0.7-15.9-2.7-34.1-2.7-51v-83.4h19.6V513.6z M1994,497.9c-12.9,12.3-30.2,19-48.1,18.6c-40.5,0-69.7-30.9-69.7-83.4
		c0-52,29.7-83.4,71.4-83.4c16.9-0.1,33.1,7,44.4,19.6l-11.8,13c-8.2-9.4-20.1-14.8-32.6-14.5c-30.2,0-49.8,24.8-49.8,64.8
		c0,40.5,17.9,65.8,49.3,65.8c10.1,0.5,20-2.8,27.7-9.3v-42H1943v-16.9h51L1994,497.9z"/>
	<path id="Pfad_14" d="M1365.2,692.5c0-21.1-13.7-28.7-38.8-28.7h-26.5v59.6h26.5C1351.4,723.4,1365.2,713.1,1365.2,692.5z"/>
	<path id="Pfad_15" d="M1121.7,584H1053v283.4h1000V584H1121.7z M1239.1,664.6h-53.2v143.5h-20.6V664.6H1112v-17.4h127.1
		L1239.1,664.6z M1367.2,808.1l-38.7-68h-28.5v68h-20.9v-161h50.3c32.6,0,56.4,11.8,56.4,45.4c0,25-14.4,39.9-36.2,45.3l40.9,70.3
		L1367.2,808.1z M1531.3,664.6h-40v126.1h40v17.4h-100.6v-17.4h40V664.6h-40v-17.4h100.6V664.6z M1625.7,811
		c-36.3,0-61.8-31.4-61.8-84.2c0-52,25.5-82.7,61.8-82.7s61.8,30.7,61.8,82.7C1687.6,779.6,1662,811,1625.7,811L1625.7,811z"/>
	<path id="Pfad_16" d="M1625.7,792.9c24.3,0,40.5-24.8,40.5-66c0-40.5-16.2-64.5-40.5-64.5c-24.3,0-40.5,24-40.5,64.5
		C1585.2,768.1,1601.4,792.9,1625.7,792.9z"/>
</g>
</svg>
