<?xml version="1.0" encoding="utf-8"?>
<!-- Generator: Adobe Illustrator 23.0.6, SVG Export Plug-In . SVG Version: 6.00 Build 0)  -->
<svg version="1.1" xmlns="http://www.w3.org/2000/svg" xmlns:xlink="http://www.w3.org/1999/xlink" x="0px" y="0px" width="1000px"
	 height="890px" viewBox="0 0 1000 890" style="enable-background:new 0 0 1000 890;" xml:space="preserve">
<style type="text/css">
	.st0{fill:#FFFFFF;}
	.st1{fill:#606060;}
</style>
<g id="Ebene_1">
	<rect width="1000" height="890"/>
	<g>
		<g>
			<path class="st0" d="M43.2,706.9v-15.4H60V560.4H15.8v31.2H0v-46.6h136.8v46.6H121v-31.2H77v131.1h16.8v15.4H43.2z"/>
			<path class="st0" d="M292.9,691.5h15.8v15.4h-26.6l-46.3-67.9H201v52.6h17v15.4h-50.9v-15.4H184V560.4h-16.8v-15.4H242
				c27.6,0,50.2,16.8,50.2,46.1c0,26.9-17.3,42-37.9,45.4L292.9,691.5z M239.6,624.3c20.4,0,35.5-10.3,35.5-32.9
				c0-19.7-14.9-31.7-33.8-31.7H201v64.6H239.6z"/>
			<path class="st0" d="M341,706.9v-15.4h16.8V560.4H341v-15.4h50.6v15.4h-16.8v131.1h16.8v15.4H341z"/>
			<path class="st0" d="M496.5,710c-50.9,0-76.8-40.3-76.8-84.2s25.9-83.8,76.8-83.8s76.8,39.8,76.8,83.8S547.4,710,496.5,710z
				 M496.5,556.8c-39.1,0-59.3,32.9-59.3,69.1c0,35.8,20.2,69.1,59.3,69.1s59.3-32.9,59.3-69.1C555.8,590.2,535.7,556.8,496.5,556.8
				z"/>
		</g>
		<g>
			<path class="st0" d="M66,238.1v-19.4h15.8v54.2H66v-19.4H33.8v53.8h24v15.4H0v-15.4h16.8V176.2H0v-15.4h117.9v46.8H102v-31.4
				H33.8v61.9H66z"/>
			<path class="st0" d="M234.7,322.6v-15.4h15.4l-13.7-34.3h-70.6l-13.4,34.3h16.8v15.4h-46.6v-15.4h11l60.5-148.8h14.6l60,148.8h11
				v15.4H234.7z M200.9,183.1l-29.3,75.1h59L200.9,183.1z"/>
			<path class="st0" d="M325.2,322.6v-15.4H342V176.2h-44.2v31.2H282v-46.6h136.8v46.6h-15.8v-31.2H359v131.1h16.8v15.4H325.2z"/>
			<path class="st0" d="M561.5,322.6v-15.4h16.8v-61H483v61h16.8v15.4h-50.6v-15.4h16.8V176.2h-16.8v-15.4h50.6v15.4H483v54.7h95.3
				v-54.7h-16.8v-15.4h50.6v15.4h-16.8v131.1h16.8v15.4H561.5z"/>
			<path class="st0" d="M717.5,325.7c-50.9,0-76.8-40.3-76.8-84.2s25.9-83.8,76.8-83.8c50.9,0,76.8,39.8,76.8,83.8
				S768.4,325.7,717.5,325.7z M717.5,172.6c-39.1,0-59.3,32.9-59.3,69.1c0,35.8,20.2,69.1,59.3,69.1c39.1,0,59.3-32.9,59.3-69.1
				C776.8,205.9,756.6,172.6,717.5,172.6z"/>
			<path class="st0" d="M951.4,322.6v-15.4h16.8v-114l-49.9,80.2H906l-49.9-78.2v112.1h16.8v15.4h-50.2v-15.4h16.8V176.2h-16.8
				v-15.4h31.7l58.1,93.4l58.1-93.4h31.4v15.4h-16.8v131.1h16.8v15.4H951.4z"/>
		</g>
		<g>
			<path class="st0" d="M0,517.8v-49.2h15.8v14.6C26.2,495.8,40.6,503,59,503c25.7,0,38.6-11.5,38.6-27.6c0-47-89.8-25.7-89.8-82.1
				c0-25.7,18.7-43.4,52.1-43.4c12,0,24.2,2.6,34.8,9.1v-9.1h15.8v44.4H94.8v-16.3c-7.4-7.4-20.9-13.2-34.3-13.2
				c-24.5,0-34.8,11-34.8,25.9c0,42.7,89.8,25,89.8,81.6c0,29.8-24.7,45.6-57.1,45.6c-16.8,0-31-4.1-42.5-13v13H0z"/>
			<path class="st0" d="M190.6,514.7v-15.4h16.8V368.3h-44.2v31.2h-15.8v-46.6h136.8v46.6h-15.8v-31.2h-43.9v131.1h16.8v15.4H190.6z
				"/>
			<path class="st0" d="M440.3,499.4h15.8v15.4h-26.6l-46.3-67.9h-34.8v52.6h17v15.4h-50.9v-15.4h16.8V368.3h-16.8v-15.4h74.9
				c27.6,0,50.2,16.8,50.2,46.1c0,26.9-17.3,42-37.9,45.4L440.3,499.4z M387,432.2c20.4,0,35.5-10.3,35.5-32.9
				c0-19.7-14.9-31.7-33.8-31.7h-40.3v64.6H387z"/>
			<path class="st0" d="M488.4,514.7v-15.4h16.8V368.3h-16.8v-15.4H539v15.4h-16.8v131.1H539v15.4H488.4z"/>
			<path class="st0" d="M704.8,516.9L604.5,384.1v115.2h24v15.4h-57.4v-15.4h16.8V368.3h-16.8v-15.4h31L701,484.2V368.3h-24v-15.4
				h57.4v15.4h-16.8v148.6H704.8z"/>
			<path class="st0" d="M874.3,379.3c-11-10.1-23.5-14.6-37.9-14.6c-38.6,0-55.9,34.8-55.9,69.1c0,41.5,18.5,69.1,63.6,69.1
				c11,0,23.8-1.2,34.3-5.3v-45.1h-48v-14.9h64.3v71c-16.1,6.5-34.6,9.1-52.1,9.1c-52.6,0-79.7-31.7-79.7-83.8
				c0-43.2,23-84.2,73-84.2c14.6,0,28.1,3.8,38.4,10.6v-10.6h15.8v44.4h-15.8V379.3z"/>
		</g>
	</g>
</g>
<g id="Ebene_2">
</g>
</svg>
